<svg width="160" height="36" viewBox="0 0 160 36" xmlns="http://www.w3.org/2000/svg">
  <!-- Icon part -->
  <g transform="translate(0, 2)">
    <!-- Background circle -->
    <circle cx="18" cy="16" r="16" fill="#E3F2FD"/>
    
    <!-- Left document -->
    <rect x="8" y="10" width="10" height="12" rx="1.5" fill="#0095EB" opacity="0.9"/>
    <rect x="10" y="12.5" width="6" height="1" rx="0.5" fill="white"/>
    <rect x="10" y="15" width="4.5" height="1" rx="0.5" fill="white"/>
    <rect x="10" y="17.5" width="6" height="1" rx="0.5" fill="white"/>
    
    <!-- Arrow -->
    <path d="M 19 16 L 24 16 M 22.5 13.5 L 25 16 L 22.5 18.5" stroke="#0073BB" stroke-width="1.8" stroke-linecap="round" stroke-linejoin="round" fill="none"/>
    
    <!-- Right document with gradient -->
    <defs>
      <linearGradient id="docGradient" x1="0%" y1="0%" x2="100%" y2="100%">
        <stop offset="0%" style="stop-color:#0095EB;stop-opacity:1" />
        <stop offset="100%" style="stop-color:#0073BB;stop-opacity:1" />
      </linearGradient>
    </defs>
    <rect x="18" y="10" width="10" height="12" rx="1.5" fill="url(#docGradient)"/>
    <rect x="20" y="12.5" width="6" height="1" rx="0.5" fill="white"/>
    <rect x="20" y="15" width="4.5" height="1" rx="0.5" fill="white"/>
    <rect x="20" y="17.5" width="6" height="1" rx="0.5" fill="white"/>
  </g>
  
  <!-- Text part -->
  <text x="42" y="24" font-family="-apple-system, BlinkMacSystemFont, 'Segoe UI', Roboto, sans-serif" font-size="20" font-weight="700" fill="#0095EB">Convertly</text>
</svg>